<?xml version="1.0" encoding="UTF-8"?>
<!DOCTYPE svg PUBLIC "-//W3C//DTD SVG 1.1//EN" "http://www.w3.org/Graphics/SVG/1.1/DTD/svg11.dtd">
<!-- Creator: CorelDRAW -->
<svg xmlns="http://www.w3.org/2000/svg" xml:space="preserve" width="193.168mm" height="84.26mm" version="1.1" style="shape-rendering:geometricPrecision; text-rendering:geometricPrecision; image-rendering:optimizeQuality; fill-rule:evenodd; clip-rule:evenodd"
viewBox="0 0 1595.88 696.12"
 xmlns:xlink="http://www.w3.org/1999/xlink"
 xmlns:xodm="http://www.corel.com/coreldraw/odm/2003">
 <defs>
  <style type="text/css">
   <![CDATA[
    .fil0 {fill:#2B2A29}
   ]]>
  </style>
 </defs>
 <g id="Слой_x0020_1">
  <metadata id="CorelCorpID_0Corel-Layer"/>
  <g id="_3267378700000">
   <path class="fil0" d="M43.43 657.43l58.86 0c4.08,0 7.3,2.33 7.3,6.63l0 25.43c0,4.3 -3.22,6.63 -7.3,6.63l-95.26 0c-4.15,0 -7.04,-2.64 -7.04,-6.85l0 -145.23c0,-4.21 2.89,-6.85 7.04,-6.85l29.35 0c4.15,0 7.04,2.64 7.04,6.85l0 113.39zm81.43 -17.69l0 -95.71c0,-4.21 2.89,-6.85 7.04,-6.85l29.35 0c4.15,0 7.04,2.64 7.04,6.85l0 93.48c0,5.28 1.92,9.83 5.27,13.88 2.89,3.49 6.45,6.04 11.11,6.04l15.45 0c4.66,0 8.22,-2.54 11.11,-6.04 3.35,-4.05 5.27,-8.6 5.27,-13.88l0 -93.48c0,-4.21 2.89,-6.85 7.04,-6.85l29.35 0c4.15,0 7.04,2.64 7.04,6.85l0 95.71c0,15.68 -6.21,28.86 -17.43,39.66 -11.18,10.76 -24.5,16.72 -40.07,16.72l-20.08 0c-15.63,0 -29.02,-5.87 -40.21,-16.73 -11.17,-10.84 -17.29,-24.03 -17.29,-39.64zm244.96 -36.24l36.46 -62.57c1.35,-2.32 3.54,-3.75 6.25,-3.75l27.03 0c4.15,0 7.04,2.64 7.04,6.85l0 145.23c0,4.21 -2.89,6.85 -7.04,6.85l-29.35 0c-4.16,0 -7.04,-2.64 -7.04,-6.85l0 -63.75 -27.24 45.63 -0.1 0.14c-1.57,2.18 -3.86,3.43 -6.55,3.43 -2.78,0 -5.11,-1.35 -6.51,-3.75l-26.1 -44.88 0 63.2c0,4.21 -2.89,6.85 -7.04,6.85l-29.35 0c-4.15,0 -7.04,-2.64 -7.04,-6.85l0 -138.32c0,-3 1.86,-5.19 4.61,-6.15l24.82 -10.42c3.76,-1.63 7.53,-0.64 9.42,3.12l37.73 66.01zm224.03 12.64l16.04 14.27 0.1 0.1c2.35,2.41 3.95,5.35 3.95,8.78 0,15.3 -5.43,28.57 -15.87,39.73 -11.02,11.79 -25.06,17.09 -41.12,17.09l-67.45 0c-4.15,0 -7.04,-2.64 -7.04,-6.85l0 -145.23c0,-4.21 2.89,-6.85 7.04,-6.85l69.77 0c13.61,0 25.61,4.42 35.24,14.1 9.16,9.21 14.03,20.34 14.03,33.35 0,12.78 -5.68,23.16 -14.69,31.5zm90.38 19.53l0 21.75 62.98 0c4.08,0 7.3,2.33 7.3,6.63l0 25.43c0,4.3 -3.22,6.63 -7.3,6.63l-99.38 0c-4.15,0 -7.04,-2.64 -7.04,-6.85l0 -145.23c0,-4.22 2.89,-6.85 7.04,-6.85l94.48 0c4.08,0 7.3,2.33 7.3,6.63l0 25.43c0,4.3 -3.22,6.63 -7.3,6.63l-58.09 0 0 19.87 4.79 -1.31c4.07,-1.11 8.42,-1.48 12.63,-1.48l31.41 0c4.08,0 7.3,2.33 7.3,6.63l0 25.43c0,4.3 -3.22,6.63 -7.3,6.63l-32.97 0 -15.85 4.03zm144.43 2.28l0 51.31c0,4.21 -2.89,6.85 -7.04,6.85l-29.35 0c-4.15,0 -7.04,-2.64 -7.04,-6.85l0 -145.23c0,-4.21 2.89,-6.85 7.04,-6.85l63.85 0c15.17,0 28.94,4.47 40.05,15.03 10.75,10.21 15.91,22.98 15.91,37.78 0,9.3 -2.01,18.22 -6.56,26.36 -3.67,6.56 -8.52,12 -14.55,16.27l22.75 34.15c1.36,2.03 2.47,4.38 2.47,6.88l0 16.06c0,4.01 -2.9,6.41 -6.79,6.41l-22.66 0c-2.99,0 -5.43,-1.51 -7.14,-3.97l-33.84 -51.25 -17.12 -2.94zm217.03 19.47l58.86 0c4.08,0 7.3,2.33 7.3,6.63l0 25.43c0,4.3 -3.23,6.63 -7.3,6.63l-95.25 0c-4.15,0 -7.04,-2.64 -7.04,-6.85l0 -145.23c0,-4.21 2.89,-6.85 7.04,-6.85l29.35 0c4.15,0 7.04,2.64 7.04,6.85l0 113.39zm168.89 10.14l-22.49 0 -24.51 6.47 -5.78 16.42c-1.5,3.65 -4.48,5.66 -8.32,5.66l-31.15 0c-5.28,0 -8.1,-3.86 -6.27,-8.92l57.43 -145.49c1.08,-2.81 3.47,-4.53 6.51,-4.53l26.01 0c3.11,0 5.65,1.61 6.77,4.54l56.14 145.5c1.88,5.19 -1.23,8.91 -6.53,8.91l-31.15 0c-3.97,0 -7.09,-2.03 -8.15,-5.88l-8.5 -22.68zm165.36 -53.81l0 -69.72c0,-4.21 2.89,-6.85 7.04,-6.85l29.35 0c4.15,0 7.04,2.64 7.04,6.85l0 145.46c0,4.3 -3.22,6.63 -7.3,6.63l-21.11 0c-4.63,0 -8.55,-1.88 -11.4,-5.6l-54.16 -74.14 0 72.89c0,4.21 -2.89,6.85 -7.04,6.85l-29.35 0c-4.16,0 -7.04,-2.64 -7.04,-6.85l0 -135.64c0,-2.59 1.05,-4.96 3.38,-6.17l24.47 -13.4c3.64,-1.84 7.46,-1.33 9.74,2.16l56.37 77.53zm79.3 75.51l0 -135.64c0,-2.8 1.76,-4.88 4.13,-6.16l0.15 -0.08 20.75 -8.99c1.53,-0.66 3.24,-1.22 4.92,-1.22l49.17 0c15.63,0 29.03,5.87 40.22,16.73 11.17,10.84 17.29,24.03 17.29,39.64l0 46.18c0,15.62 -6.12,28.8 -17.29,39.64 -11.19,10.86 -24.58,16.73 -40.22,16.73l-72.08 0c-4.16,0 -7.04,-2.64 -7.04,-6.85zm-933.35 -57.4l0 25.56 31.06 0c3.14,0 5.7,-1.32 7.95,-3.47 1.91,-1.83 3.33,-3.91 4.12,-6.34l-18.18 -15.75 -24.95 0zm0 -38.69l31.32 0c2.04,0 3.54,-0.86 4.84,-2.4 1.53,-1.79 2.28,-3.79 2.28,-6.14 0,-2.42 -0.59,-4.62 -2.17,-6.5 -1.33,-1.58 -2.89,-2.27 -4.95,-2.27l-31.32 0 0 17.31zm302.76 5.79l28.52 5.25c2.96,-0.96 5.46,-2.59 7.41,-5.08 2.12,-2.69 3.02,-5.74 3.02,-9.15 0,-3.84 -0.88,-7.5 -3.5,-10.41 -2.55,-2.84 -6.09,-3.71 -9.8,-3.71l-25.65 0 0 23.1zm372.22 29.9l-8.05 -22.25 -8.84 23.89 0.67 -0.17c4.03,-1.1 8.38,-1.47 12.59,-1.47l3.64 0zm301.8 28.55l33.12 0c4.77,0 8.4,-2.44 11.37,-6.04 3.35,-4.05 5.27,-8.6 5.27,-13.88l0 -41.72c0,-5.28 -1.92,-9.83 -5.27,-13.88 -2.97,-3.6 -6.6,-6.04 -11.37,-6.04l-33.12 0 0 81.56z"/>
   <path class="fil0" d="M744.35 113.82c5.26,3.58 9.29,5.17 17.42,5.17 -1.58,7.61 -35.99,55.87 -44.22,75.88 11.91,10.26 7.97,5.5 24.12,10.35l-43.21 61.66c-2.4,3.67 -4,5.81 -5.03,10.77 4.78,9.18 19.65,11.16 28.14,12.07 -2.19,3.84 -53.6,57.34 -53.6,70.7 0,13.22 53.46,18.22 86.87,19.92 69.9,3.55 27.72,4.88 90.99,1.67 25.65,-1.3 57.92,-4.31 71.95,-10.5 6.87,-3.03 5.45,-3.59 10.15,-7.64 -2.75,-15.18 -27.42,-46.42 -36.95,-55.91 -4.07,-4.06 -12.89,-13.06 -13.97,-18.24 10.04,0 18.04,-3.38 24.12,-8.62 -1.27,-19.64 -42.36,-64.59 -48.24,-75.88 5.1,-3.15 11.02,-1.52 21.44,-8.62 -1.04,-16.07 -40.53,-68 -42.88,-79.33 8.8,0 12.21,-2.41 17.42,-6.9 -1.23,-6.81 -8.33,-21.67 -11.47,-28.34l-35.63 -76.58c-2.85,-4.96 -0.81,-2.49 -5.15,-5.44 -5.29,4.56 -4.5,5.19 -7.63,12.59 -2.2,5.18 -4.18,8.83 -6.54,14 -4.68,10.24 -8.29,18.36 -12.89,28.25 -4.55,9.77 -24.68,51.03 -25.19,58.98z"/>
   <path class="fil0" d="M453.5 242.27c3.34,2.27 5.89,3.28 11.04,3.28 -1,4.82 -22.81,35.4 -28.02,48.08 7.55,6.5 5.05,3.49 15.28,6.56l-27.38 39.07c-1.52,2.33 -2.54,3.68 -3.19,6.82 3.03,5.82 12.45,7.07 17.83,7.65 -1.38,2.43 -33.96,36.34 -33.96,44.8 0,8.38 33.88,11.55 55.05,12.62 44.29,2.25 17.56,3.09 57.66,1.06 16.25,-0.82 36.7,-2.73 45.59,-6.66 4.36,-1.92 3.45,-2.28 6.43,-4.84 -1.74,-9.62 -17.38,-29.42 -23.42,-35.43 -2.58,-2.57 -8.17,-8.28 -8.85,-11.56 6.36,0 11.43,-2.14 15.28,-5.46 -0.81,-12.45 -26.85,-40.93 -30.57,-48.08 3.23,-1.99 6.98,-0.97 13.59,-5.46 -0.66,-10.18 -25.68,-43.09 -27.17,-50.27 5.57,0 7.74,-1.52 11.04,-4.37 -0.78,-4.31 -5.28,-13.73 -7.27,-17.96l-22.58 -48.53c-1.81,-3.14 -0.51,-1.57 -3.26,-3.45 -3.35,2.89 -2.85,3.29 -4.84,7.98 -1.39,3.28 -2.65,5.6 -4.15,8.87 -2.96,6.49 -5.25,11.63 -8.17,17.9 -2.88,6.19 -15.64,32.34 -15.96,37.37z"/>
   <path class="fil0" d="M573.14 168.09c4.49,3.06 7.93,4.42 14.87,4.42 -1.35,6.5 -30.73,47.7 -37.75,64.78 10.17,8.76 6.8,4.7 20.59,8.83l-36.89 52.64c-2.05,3.13 -3.42,4.96 -4.3,9.19 4.08,7.84 16.78,9.53 24.02,10.31 -1.87,3.28 -45.76,48.96 -45.76,60.36 0,11.29 45.64,15.56 74.16,17.01 59.67,3.03 23.66,4.16 77.68,1.43 21.9,-1.11 49.45,-3.68 61.43,-8.97 5.87,-2.59 4.65,-3.07 8.66,-6.52 -2.35,-12.96 -23.41,-39.63 -31.55,-47.73 -3.48,-3.46 -11.01,-11.15 -11.92,-15.57 8.57,0 15.4,-2.88 20.59,-7.36 -1.08,-16.77 -36.17,-55.14 -41.18,-64.78 4.35,-2.69 9.4,-1.3 18.3,-7.36 -0.89,-13.72 -34.6,-58.05 -36.61,-67.72 7.51,0 10.42,-2.05 14.87,-5.89 -1.05,-5.81 -7.11,-18.5 -9.8,-24.2l-30.42 -65.38c-2.43,-4.23 -0.69,-2.12 -4.4,-4.65 -4.52,3.89 -3.84,4.43 -6.52,10.75 -1.87,4.42 -3.57,7.54 -5.58,11.95 -3.99,8.74 -7.07,15.67 -11.01,24.11 -3.89,8.34 -21.07,43.57 -21.51,50.35z"/>
   <path class="fil0" d="M931.24 168.09c4.49,3.06 7.94,4.42 14.87,4.42 -1.35,6.5 -30.73,47.7 -37.75,64.78 10.17,8.76 6.8,4.7 20.59,8.83l-36.89 52.64c-2.05,3.13 -3.42,4.96 -4.3,9.19 4.08,7.84 16.78,9.53 24.02,10.31 -1.87,3.28 -45.76,48.96 -45.76,60.36 0,11.29 45.64,15.56 74.16,17.01 59.67,3.03 23.66,4.16 77.68,1.43 21.9,-1.11 49.45,-3.68 61.43,-8.97 5.87,-2.59 4.65,-3.07 8.66,-6.52 -2.35,-12.96 -23.41,-39.63 -31.55,-47.73 -3.48,-3.46 -11.01,-11.15 -11.92,-15.57 8.57,0 15.4,-2.88 20.59,-7.36 -1.08,-16.77 -36.17,-55.14 -41.18,-64.78 4.35,-2.69 9.4,-1.3 18.3,-7.36 -0.89,-13.72 -34.6,-58.05 -36.61,-67.72 7.51,0 10.42,-2.05 14.87,-5.89 -1.05,-5.81 -7.11,-18.5 -9.8,-24.2l-30.42 -65.38c-2.43,-4.23 -0.69,-2.12 -4.4,-4.65 -4.52,3.89 -3.84,4.43 -6.52,10.75 -1.87,4.42 -3.57,7.54 -5.58,11.95 -3.99,8.74 -7.07,15.67 -11.01,24.11 -3.89,8.34 -21.07,43.57 -21.51,50.35z"/>
   <path class="fil0" d="M1074.46 242.27c3.34,2.27 5.89,3.28 11.04,3.28 -1,4.82 -22.81,35.4 -28.02,48.08 7.55,6.5 5.05,3.49 15.28,6.56l-27.38 39.07c-1.52,2.33 -2.54,3.68 -3.19,6.82 3.03,5.82 12.45,7.07 17.83,7.65 -1.39,2.43 -33.96,36.34 -33.96,44.8 0,8.38 33.88,11.55 55.05,12.62 44.29,2.25 17.56,3.09 57.66,1.06 16.25,-0.82 36.7,-2.73 45.59,-6.66 4.36,-1.92 3.45,-2.28 6.43,-4.84 -1.74,-9.62 -17.38,-29.42 -23.42,-35.43 -2.58,-2.57 -8.17,-8.28 -8.85,-11.56 6.36,0 11.43,-2.14 15.28,-5.46 -0.8,-12.45 -26.84,-40.93 -30.57,-48.08 3.23,-1.99 6.98,-0.97 13.59,-5.46 -0.66,-10.18 -25.68,-43.09 -27.17,-50.27 5.57,0 7.74,-1.52 11.04,-4.37 -0.78,-4.31 -5.28,-13.73 -7.27,-17.96l-22.58 -48.53c-1.81,-3.14 -0.51,-1.57 -3.26,-3.45 -3.35,2.89 -2.85,3.29 -4.84,7.98 -1.39,3.28 -2.65,5.6 -4.14,8.87 -2.96,6.49 -5.25,11.63 -8.17,17.9 -2.88,6.19 -15.64,32.34 -15.96,37.37z"/>
  </g>
 </g>
</svg>
